<svg xmlns="http://www.w3.org/2000/svg" width="1200" height="900" viewBox="0 0 1200 900" fill="none">
  <defs>
    <linearGradient id="bg" x1="0" y1="0" x2="1" y2="1">
      <stop offset="0%" stop-color="#D9F5F2"/>
      <stop offset="100%" stop-color="#BFEAE5"/>
    </linearGradient>
    <linearGradient id="bottle" x1="0" y1="0" x2="0" y2="1">
      <stop offset="0%" stop-color="#0EA5A1"/>
      <stop offset="100%" stop-color="#0F766E"/>
    </linearGradient>
  </defs>

  <rect width="1200" height="900" rx="48" fill="url(#bg)"/>
  <circle cx="180" cy="150" r="110" fill="#34D399" fill-opacity="0.26"/>
  <circle cx="1010" cy="730" r="150" fill="#22C55E" fill-opacity="0.16"/>

  <rect x="190" y="610" width="820" height="56" rx="28" fill="#83CFC4" fill-opacity="0.5"/>

  <g>
    <rect x="500" y="170" width="200" height="460" rx="56" fill="url(#bottle)"/>
    <rect x="560" y="110" width="80" height="70" rx="20" fill="#0F766E"/>
    <rect x="540" y="80" width="120" height="38" rx="16" fill="#115E59"/>
    <rect x="528" y="330" width="144" height="150" rx="22" fill="#DCFCE7"/>
    <path d="M560 430C580 390 620 390 640 430" stroke="#0F766E" stroke-width="16" stroke-linecap="round"/>
  </g>

  <g opacity="0.95">
    <rect x="320" y="285" width="140" height="300" rx="34" fill="#14B8A6"/>
    <rect x="356" y="248" width="68" height="40" rx="12" fill="#0F766E"/>
    <circle cx="390" cy="430" r="34" fill="#E2FDF7"/>
  </g>

  <g opacity="0.95">
    <rect x="760" y="300" width="180" height="280" rx="30" fill="#0EA5A1"/>
    <rect x="804" y="260" width="92" height="48" rx="14" fill="#0F766E"/>
    <rect x="795" y="390" width="110" height="110" rx="20" fill="#CCFBF1"/>
    <path d="M830 445H870" stroke="#0F766E" stroke-width="12" stroke-linecap="round"/>
    <path d="M850 425V465" stroke="#0F766E" stroke-width="12" stroke-linecap="round"/>
  </g>

  <g fill="#0F766E" fill-opacity="0.18">
    <circle cx="255" cy="520" r="24"/>
    <circle cx="940" cy="190" r="18"/>
    <circle cx="1000" cy="240" r="12"/>
  </g>
</svg>
