<svg xmlns="http://www.w3.org/2000/svg" viewBox="0 0 64 64" role="img" aria-label="Urban Threads">
  <defs>
    <linearGradient id="bg" x1="8%" y1="6%" x2="94%" y2="96%">
      <stop offset="0%" stop-color="#0f766e" />
      <stop offset="100%" stop-color="#2563eb" />
    </linearGradient>
    <linearGradient id="accent" x1="0%" y1="0%" x2="100%" y2="100%">
      <stop offset="0%" stop-color="#f97316" />
      <stop offset="100%" stop-color="#facc15" />
    </linearGradient>
  </defs>
  <rect x="4" y="4" width="56" height="56" rx="14" fill="url(#bg)" />
  <rect x="13" y="14" width="38" height="36" rx="8" fill="#0f172a" opacity="0.9" />
  <path d="M24 19c0-3.4 2.8-6.2 6.2-6.2h3.6c3.4 0 6.2 2.8 6.2 6.2v2.6h-3.6V19a2.7 2.7 0 0 0-2.6-2.6h-3.6A2.7 2.7 0 0 0 27.6 19v2.6H24V19z" fill="#e2e8f0" />
  <path d="M22 25h20v12.8c0 4.1-3.3 7.4-7.4 7.4h-5.2c-4.1 0-7.4-3.3-7.4-7.4V25z" fill="#e2e8f0" />
  <circle cx="46.5" cy="46.5" r="7.5" fill="url(#accent)" />
  <path d="M43.7 46.5h5.6M46.5 43.7v5.6" stroke="#1f2937" stroke-width="1.8" stroke-linecap="round" />
</svg>
